<svg width="100" height="100" viewBox="0 0 100 100" xmlns="http://www.w3.org/2000/svg">
  <defs>
    <linearGradient id="brickGrad" x1="0%" y1="0%" x2="0%" y2="100%">
      <stop offset="0%" style="stop-color:#D2691E;stop-opacity:1" />
      <stop offset="100%" style="stop-color:#8B4513;stop-opacity:1" />
    </linearGradient>
  </defs>
  
  <!-- Main Block -->
  <rect width="100" height="100" fill="#2F1500"/>
  
  <!-- Bricks -->
  <rect x="2" y="2" width="47" height="22" rx="2" fill="url(#brickGrad)"/>
  <rect x="51" y="2" width="47" height="22" rx="2" fill="url(#brickGrad)"/>
  
  <rect x="2" y="26" width="22" height="22" rx="2" fill="url(#brickGrad)"/>
  <rect x="26" y="26" width="48" height="22" rx="2" fill="url(#brickGrad)"/>
  <rect x="76" y="26" width="22" height="22" rx="2" fill="url(#brickGrad)"/>
  
  <rect x="2" y="50" width="47" height="22" rx="2" fill="url(#brickGrad)"/>
  <rect x="51" y="50" width="47" height="22" rx="2" fill="url(#brickGrad)"/>
  
  <rect x="2" y="74" width="22" height="22" rx="2" fill="url(#brickGrad)"/>
  <rect x="26" y="74" width="48" height="22" rx="2" fill="url(#brickGrad)"/>
  <rect x="76" y="74" width="22" height="22" rx="2" fill="url(#brickGrad)"/>
  
  <!-- Shine -->
  <rect x="2" y="2" width="47" height="5" rx="2" fill="#FFF" opacity="0.1"/>
  <rect x="51" y="2" width="47" height="5" rx="2" fill="#FFF" opacity="0.1"/>
</svg>
