<svg width="100" height="100" viewBox="0 0 100 100" xmlns="http://www.w3.org/2000/svg">
  <!-- Feet -->
  <ellipse cx="30" cy="90" rx="15" ry="10" fill="#000"/>
  <ellipse cx="70" cy="90" rx="15" ry="10" fill="#000"/>
  
  <!-- Stem/Body -->
  <path d="M35 80 Q50 90 65 80 L70 50 Q50 45 30 50 Z" fill="#FFE4B5"/>
  
  <!-- Head (Mushroom Cap) -->
  <path d="M10 50 Q50 0 90 50 Q95 60 85 65 Q50 55 15 65 Q5 60 10 50 Z" fill="#8B4513"/>
  
  <!-- Eyes -->
  <ellipse cx="35" cy="45" rx="8" ry="10" fill="#FFF"/>
  <ellipse cx="65" cy="45" rx="8" ry="10" fill="#FFF"/>
  
  <ellipse cx="37" cy="45" rx="3" ry="5" fill="#000"/>
  <ellipse cx="63" cy="45" rx="3" ry="5" fill="#000"/>
  
  <!-- Eyebrows (Angry) -->
  <path d="M25 35 L45 40" stroke="#000" stroke-width="3" stroke-linecap="round"/>
  <path d="M75 35 L55 40" stroke="#000" stroke-width="3" stroke-linecap="round"/>
</svg>
